<?xml version="1.0" encoding="UTF-8" standalone="no" ?>
<!DOCTYPE svg PUBLIC "-//W3C//DTD SVG 1.1//EN" "http://www.w3.org/Graphics/SVG/1.1/DTD/svg11.dtd">
<svg xmlns="http://www.w3.org/2000/svg" xmlns:xlink="http://www.w3.org/1999/xlink" version="1.1" width="503" height="119" viewBox="0 0 503 119" xml:space="preserve">
<desc>Created with Fabric.js 4.6.0</desc>
<defs>
</defs>
<g transform="matrix(1.57 0 0 1.57 251.48 59.48)" id="cWn9TTTn6wwWWRnd2aCZ7"  >
<path style="stroke: rgb(255,255,255); stroke-width: 1.92; stroke-dasharray: none; stroke-linecap: butt; stroke-dashoffset: 0; stroke-linejoin: miter; stroke-miterlimit: 4; fill: none; fill-rule: nonzero; opacity: 1;" vector-effect="non-scaling-stroke"  transform=" translate(-159.5, -37.15)" d="M 0 74.308 L 0 0 L 319 0 L 319 74.308 z" stroke-linecap="round" />
</g>
<g transform="matrix(1.57 0 0 1.63 38.87 61.91)" id="jhke0o7xKx1QowYMMeXgv"  >
<polyline style="stroke: rgb(255,255,255); stroke-width: 1.86; stroke-dasharray: none; stroke-linecap: round; stroke-dashoffset: 0; stroke-linejoin: round; stroke-miterlimit: 4; fill: none; fill-rule: nonzero; opacity: 1;" vector-effect="non-scaling-stroke"  points="9.58,23.25 4.3,23.24 7.88,23.25 7.48,-23.41 -0.52,8.95 -8.43,-23.41 -8,23.36 -4.25,23.36 -9.58,23.41 " />
</g>
<g transform="matrix(1.57 0 0 1.64 64.64 61.8)" id="Ohaz2XLLWQmNDVwSgjiZH"  >
<polyline style="stroke: rgb(255,255,255); stroke-width: 1.86; stroke-dasharray: none; stroke-linecap: round; stroke-dashoffset: 0; stroke-linejoin: round; stroke-miterlimit: 4; fill: none; fill-rule: nonzero; opacity: 1;" vector-effect="non-scaling-stroke"  points="4.43,-23.41 4.47,21.27 1.84,23.41 -4.47,23.41 " />
</g>
<g transform="matrix(1.57 0 0 1.64 71.79 23.42)" id="8D6sifjRerJSN5yWgM0Eo"  >
<line style="stroke: rgb(255,255,255); stroke-width: 1.86; stroke-dasharray: none; stroke-linecap: round; stroke-dashoffset: 0; stroke-linejoin: round; stroke-miterlimit: 4; fill: none; fill-rule: nonzero; opacity: 1;" vector-effect="non-scaling-stroke"  x1="-9.009499999999996" y1="0" x2="9.009499999999996" y2="0" />
</g>
<g transform="matrix(1.57 0 0 1.64 78.15 98.43)" id="mbTi6NCvPkVQe3lik26kq"  >
<polyline style="stroke: rgb(255,255,255); stroke-width: 1.86; stroke-dasharray: none; stroke-linecap: round; stroke-dashoffset: 0; stroke-linejoin: round; stroke-miterlimit: 4; fill: none; fill-rule: nonzero; opacity: 1;" vector-effect="non-scaling-stroke"  points="-4.15,-1.06 -1.16,1.05 4.15,1.06 " />
</g>
<g transform="matrix(1.57 0 0 1.62 105.76 61.8)" id="vIWGCC3BiWH7iC2uDTefU"  >
<polyline style="stroke: rgb(255,255,255); stroke-width: 1.87; stroke-dasharray: none; stroke-linecap: round; stroke-dashoffset: 0; stroke-linejoin: round; stroke-miterlimit: 4; fill: none; fill-rule: nonzero; opacity: 1;" vector-effect="non-scaling-stroke"  points="9.09,-12.7 9.14,-23.48 -9.14,-23.62 -9.11,23.62 " />
</g>
<g transform="matrix(1.57 0 0 1.62 105.76 75.26)" id="Q6O3WDi_1HAoSnATvn-zy"  >
<polyline style="stroke: rgb(255,255,255); stroke-width: 1.87; stroke-dasharray: none; stroke-linecap: round; stroke-dashoffset: 0; stroke-linejoin: round; stroke-miterlimit: 4; fill: none; fill-rule: nonzero; opacity: 1;" vector-effect="non-scaling-stroke"  points="-9.14,-0.38 8.91,-0.69 9.14,-3.78 9.14,3.78 " />
</g>
<g transform="matrix(1.57 0 0 1.62 137.7 23.64)" id="AIAqN15qECnaowGneAxzE"  >
<line style="stroke: rgb(255,255,255); stroke-width: 1.87; stroke-dasharray: none; stroke-linecap: round; stroke-dashoffset: 0; stroke-linejoin: round; stroke-miterlimit: 4; fill: none; fill-rule: nonzero; opacity: 1;" vector-effect="non-scaling-stroke"  x1="-9.331000000000003" y1="0" x2="9.331000000000003" y2="0" />
</g>
<g transform="matrix(1.57 0 0 1.62 137 61.91)" id="4rpc0AuNKwz19DikQoHLR"  >
<line style="stroke: rgb(255,255,255); stroke-width: 1.87; stroke-dasharray: none; stroke-linecap: round; stroke-dashoffset: 0; stroke-linejoin: round; stroke-miterlimit: 4; fill: none; fill-rule: nonzero; opacity: 1;" vector-effect="non-scaling-stroke"  x1="0.028500000000008185" y1="23.63500000000002" x2="-0.028500000000008185" y2="-23.63500000000002" />
</g>
<g transform="matrix(1.57 0 0 1.62 137.88 99.84)" id="guUjpXB12QVgsYOW40aYY"  >
<line style="stroke: rgb(255,255,255); stroke-width: 1; stroke-dasharray: none; stroke-linecap: round; stroke-dashoffset: 0; stroke-linejoin: round; stroke-miterlimit: 4; fill: none; fill-rule: nonzero; opacity: 1;" vector-effect="non-scaling-stroke"  x1="-2.7475000000000023" y1="-0.03450000000000841" x2="2.7475000000000023" y2="0.03450000000000841" />
</g>
<g transform="matrix(1.57 0 0 1.66 169.81 61.91)" id="SOIfWKVuxldzo8YQjLOBf"  >
<polyline style="stroke: rgb(255,255,255); stroke-width: 1.85; stroke-dasharray: none; stroke-linecap: round; stroke-dashoffset: 0; stroke-linejoin: round; stroke-miterlimit: 4; fill: none; fill-rule: nonzero; opacity: 1;" vector-effect="non-scaling-stroke"  points="9.42,23.08 3.95,23.08 6.18,23.08 -1.06,-23.08 -6.84,23.08 -9.42,23.08 -4.33,23.08 " />
</g>
<g transform="matrix(1.57 0 0 1.66 167.42 75.64)" id="GKmjyYyAPnnMPhuODBavb"  >
<line style="stroke: rgb(255,255,255); stroke-width: 1.85; stroke-dasharray: none; stroke-linecap: round; stroke-dashoffset: 0; stroke-linejoin: round; stroke-miterlimit: 4; fill: none; fill-rule: nonzero; opacity: 1;" vector-effect="non-scaling-stroke"  x1="-2.9950000000000045" y1="-0.046999999999997044" x2="2.9950000000000045" y2="0.046999999999997044" />
</g>
<g transform="matrix(1.57 0 0 1.61 206.01 61.91)" id="SRODcUx6HXICshiEbwwul"  >
<path style="stroke: rgb(255,255,255); stroke-width: 1.88; stroke-dasharray: none; stroke-linecap: round; stroke-dashoffset: 0; stroke-linejoin: round; stroke-miterlimit: 4; fill: none; fill-rule: nonzero; opacity: 1;" vector-effect="non-scaling-stroke"  transform=" translate(-213.28, -239.43)" d="M 204.915 263.158 L 204.876 215.759 L 221.724 215.7 L 221.724 247.325 L 204.838 247.325" stroke-linecap="round" />
</g>
<g transform="matrix(1.57 0 0 1.61 215.07 87.41)" id="uKqPpyNPsXESK-btuspqB"  >
<polyline style="stroke: rgb(255,255,255); stroke-width: 1.88; stroke-dasharray: none; stroke-linecap: round; stroke-dashoffset: 0; stroke-linejoin: round; stroke-miterlimit: 4; fill: none; fill-rule: nonzero; opacity: 1;" vector-effect="non-scaling-stroke"  points="-2.66,-7.92 2.63,-3.76 2.66,7.92 " />
</g>
<g transform="matrix(1.57 0 0 1.62 232.18 62.03)" id="0Aws9H_pxhzKP_3ygXqea"  >
<polyline style="stroke: rgb(255,255,255); stroke-width: 1.87; stroke-dasharray: none; stroke-linecap: round; stroke-dashoffset: 0; stroke-linejoin: round; stroke-miterlimit: 4; fill: none; fill-rule: nonzero; opacity: 1;" vector-effect="non-scaling-stroke"  points="4.45,-23.55 4.47,21.41 1.84,23.55 -4.47,23.55 " />
</g>
<g transform="matrix(1.57 0 0 1.62 239.34 23.77)" id="4D4KJHlCVy0dOAEz0eqa7"  >
<line style="stroke: rgb(255,255,255); stroke-width: 1.87; stroke-dasharray: none; stroke-linecap: round; stroke-dashoffset: 0; stroke-linejoin: round; stroke-miterlimit: 4; fill: none; fill-rule: nonzero; opacity: 1;" vector-effect="non-scaling-stroke"  x1="-8.977500000000006" y1="-0.07750000000000057" x2="8.977500000000006" y2="0.07750000000000057" />
</g>
<g transform="matrix(1.57 0 0 1.62 245.69 98.45)" id="hSqATgOWXH3JM224NUSer"  >
<polyline style="stroke: rgb(255,255,255); stroke-width: 1.87; stroke-dasharray: none; stroke-linecap: round; stroke-dashoffset: 0; stroke-linejoin: round; stroke-miterlimit: 4; fill: none; fill-rule: nonzero; opacity: 1;" vector-effect="non-scaling-stroke"  points="-4.15,-1.06 -1.16,1.05 4.15,1.06 " />
</g>
<g transform="matrix(1.57 0 0 1.54 321.37 61.65)" id="YJ-3ePfzcRjhEA6WidiAz"  >
<polyline style="stroke: rgb(255,255,255); stroke-width: 1.92; stroke-dasharray: none; stroke-linecap: round; stroke-dashoffset: 0; stroke-linejoin: round; stroke-miterlimit: 4; fill: none; fill-rule: nonzero; opacity: 1;" vector-effect="non-scaling-stroke"  points="8.11,-22.4 8.11,-24.93 -7.99,-24.79 -8.11,8.34 7.82,15.22 7.86,24.93 -8.11,24.93 -8.11,20.05 " />
</g>
<g transform="matrix(1.57 0 0 1.62 347.24 62.14)" id="in8XtGYMldBv1dDgrvtch"  >
<polyline style="stroke: rgb(255,255,255); stroke-width: 1.87; stroke-dasharray: none; stroke-linecap: round; stroke-dashoffset: 0; stroke-linejoin: round; stroke-miterlimit: 4; fill: none; fill-rule: nonzero; opacity: 1;" vector-effect="non-scaling-stroke"  points="4.45,-23.55 4.47,21.41 1.84,23.55 -4.47,23.55 " />
</g>
<g transform="matrix(1.57 0 0 1.62 354.4 23.77)" id="bev6n18519RpMhm35BYgL"  >
<line style="stroke: rgb(255,255,255); stroke-width: 1.87; stroke-dasharray: none; stroke-linecap: round; stroke-dashoffset: 0; stroke-linejoin: round; stroke-miterlimit: 4; fill: none; fill-rule: nonzero; opacity: 1;" vector-effect="non-scaling-stroke"  x1="-8.977500000000006" y1="-0.07750000000000057" x2="8.977500000000006" y2="0.07750000000000057" />
</g>
<g transform="matrix(1.57 0 0 1.62 361.86 98.51)" id="MvgvZdfrLXMxDgjgJ5dsH"  >
<polyline style="stroke: rgb(255,255,255); stroke-width: 1.87; stroke-dasharray: none; stroke-linecap: round; stroke-dashoffset: 0; stroke-linejoin: round; stroke-miterlimit: 4; fill: none; fill-rule: nonzero; opacity: 1;" vector-effect="non-scaling-stroke"  points="-4.15,-1.06 -1.16,1.05 4.15,1.06 " />
</g>
<g transform="matrix(1.57 0 0 1.66 388.35 61.5)" id="kLZp46myd3S9ArM8fDyGm"  >
<polyline style="stroke: rgb(255,255,255); stroke-width: 1.85; stroke-dasharray: none; stroke-linecap: round; stroke-dashoffset: 0; stroke-linejoin: round; stroke-miterlimit: 4; fill: none; fill-rule: nonzero; opacity: 1;" vector-effect="non-scaling-stroke"  points="9.66,23.07 4.47,23.04 7.95,22.98 7.54,-23.09 -0.45,9.27 -8.19,-22.95 -7.61,22.77 -3.94,23.02 -9.66,23.09 " />
</g>
<g transform="matrix(1.57 0 0 1.66 426.39 61.42)" id="WYs9Z40k56VuUvbdQop2h"  >
<polyline style="stroke: rgb(255,255,255); stroke-width: 1.85; stroke-dasharray: none; stroke-linecap: round; stroke-dashoffset: 0; stroke-linejoin: round; stroke-miterlimit: 4; fill: none; fill-rule: nonzero; opacity: 1;" vector-effect="non-scaling-stroke"  points="8.91,17.24 8.91,23.12 -8.91,23.12 -8.91,-23.12 8.91,-23.12 8.91,-16.82 " />
</g>
<g transform="matrix(1.57 0 0 1.66 426.39 74.19)" id="D9Ot-kh12udSUT3N3X7pr"  >
<line style="stroke: rgb(255,255,255); stroke-width: 1.85; stroke-dasharray: none; stroke-linecap: round; stroke-dashoffset: 0; stroke-linejoin: round; stroke-miterlimit: 4; fill: none; fill-rule: nonzero; opacity: 1;" vector-effect="non-scaling-stroke"  x1="8.914000000000016" y1="0" x2="-8.914000000000016" y2="0" />
</g>
<g transform="matrix(1.57 0 0 1.66 440.36 74.25)" id="Yfw35jHMp9balH6gLnZej"  >
<line style="stroke: rgb(255,255,255); stroke-width: 1.85; stroke-dasharray: none; stroke-linecap: round; stroke-dashoffset: 0; stroke-linejoin: round; stroke-miterlimit: 4; fill: none; fill-rule: nonzero; opacity: 1;" vector-effect="non-scaling-stroke"  x1="-0.0024999999999977263" y1="-2.659499999999994" x2="0.0024999999999977263" y2="2.659499999999994" />
</g>
<g transform="matrix(1.57 0 0 1.66 464.4 61.74)" id="GETZ84PWzBoh2lswPcdkB"  >
<polyline style="stroke: rgb(255,255,255); stroke-width: 1.85; stroke-dasharray: none; stroke-linecap: round; stroke-dashoffset: 0; stroke-linejoin: round; stroke-miterlimit: 4; fill: none; fill-rule: nonzero; opacity: 1;" vector-effect="non-scaling-stroke"  points="-9.5,-23.1 -9.32,20.05 -7.34,23.11 9.36,23.11 9.5,16.72 " />
</g>
</svg>